<svg xmlns="http://www.w3.org/2000/svg" width="1440" height="1024" fill="none">
<path fill="url(#a)" fill-rule="evenodd" d="M-100 800Q200 600 400 900T900 900Q1200 900 1300 700T1440 200Q1200 400 900 300T400 200Q100 100 -100 400T-100 800Z" clip-rule="evenodd" style="opacity:.154"/>
<path fill="url(#b)" fill-rule="evenodd" d="M1440 0Q1200 200 1100 400T900 700Q800 900 600 800T200 600Q0 400 200 200T700 0Q1000 0 1200 100T1440 0Z" clip-rule="evenodd" style="opacity:.154"/>
<defs>
<linearGradient id="b" x1="373" x2="1995.44" y1="1100" y2="118.03" gradientUnits="userSpaceOnUse">
<stop stop-color="#1A2980"/>
<stop offset="1" stop-color="#134E5E"/>
</linearGradient>
<linearGradient id="a" x1="107.37" x2="1130.66" y1="1993.35" y2="1026.31" gradientUnits="userSpaceOnUse">
<stop stop-color="#3245FF"/>
<stop offset="1" stop-color="#BC52EE"/>
</linearGradient>
</defs>
</svg>